<?xml version="1.0" standalone="no"?>
<!DOCTYPE svg PUBLIC "-//W3C//DTD SVG 20010904//EN"
 "http://www.w3.org/TR/2001/REC-SVG-20010904/DTD/svg10.dtd">
<svg version="1.0" xmlns="http://www.w3.org/2000/svg"
 width="2288.000000pt" height="2288.000000pt" viewBox="0 0 2288.000000 2288.000000"
 preserveAspectRatio="xMidYMid meet">
<metadata>
Created by potrace 1.11, written by Peter Selinger 2001-2013
</metadata>
<g transform="translate(0.000000,2288.000000) scale(0.100000,-0.100000)"
fill="#000000" stroke="none">
<path d="M0 11440 l0 -2640 10427 2 10427 3 1008 1319 c872 1141 1006 1321
995 1336 -7 9 -471 603 -1032 1318 l-1020 1302 -10402 0 -10403 0 0 -2640z
m3219 1178 c-11 -29 -215 -564 -453 -1188 l-433 -1135 -108 -3 c-59 -1 -104 1
-101 6 4 7 806 2102 888 2320 l19 52 104 0 104 0 -20 -52z m541 -200 c60 -31
90 -77 90 -141 0 -103 -68 -167 -177 -167 -96 0 -162 57 -170 147 -14 136 130
225 257 161z m2710 0 c60 -31 90 -77 90 -141 0 -103 -68 -167 -177 -167 -96 0
-162 57 -170 147 -14 136 130 225 257 161z m4250 0 c60 -31 90 -77 90 -141 0
-103 -68 -167 -177 -167 -96 0 -162 57 -170 147 -14 136 130 225 257 161z
m-5960 -853 l0 -845 100 0 100 0 0 -85 0 -85 -340 0 -340 0 0 85 0 84 118 3
117 3 3 758 2 757 -120 0 -120 0 0 85 0 85 240 0 240 0 0 -845z m900 0 l0
-845 100 0 100 0 0 -85 0 -85 -340 0 -340 0 0 85 0 84 118 3 117 3 3 758 2
757 -120 0 -120 0 0 85 0 85 240 0 240 0 0 -845z m13010 366 c71 -22 147 -66
198 -114 l32 -31 0 72 0 72 105 0 105 0 0 -235 0 -235 -93 0 -93 0 -18 55
c-49 158 -211 255 -401 242 -261 -19 -435 -205 -435 -466 0 -288 194 -492 468
-491 147 1 273 53 388 163 39 37 74 67 77 67 3 0 28 -32 56 -71 39 -56 48 -76
41 -89 -21 -39 -146 -141 -220 -179 -120 -63 -210 -83 -365 -84 -106 -1 -144
3 -210 21 -121 35 -209 86 -296 172 -126 124 -186 261 -196 445 -20 365 204
649 555 705 83 13 227 4 302 -19z m1500 -9 c36 -12 86 -35 113 -51 l47 -31 0
45 0 45 100 0 100 0 0 -225 0 -225 -89 0 -89 0 -7 67 c-10 94 -17 108 -77 147
-123 81 -308 100 -430 44 -69 -32 -98 -73 -98 -136 0 -110 46 -135 393 -217
248 -58 351 -114 410 -222 54 -100 54 -256 -1 -356 -75 -139 -308 -227 -526
-199 -110 14 -196 42 -267 87 l-54 34 -3 -45 -3 -44 -100 0 -99 0 2 223 3 222
85 0 85 0 10 -75 c9 -68 14 -79 49 -114 139 -139 475 -156 586 -29 26 30 30
41 30 96 0 112 -50 153 -240 197 -286 66 -340 82 -416 119 -150 75 -200 161
-192 330 3 71 9 95 33 140 48 87 138 151 265 186 81 22 293 15 380 -13z
m-4210 -92 l0 -90 -86 0 c-65 0 -85 -3 -81 -13 2 -7 69 -198 148 -424 l144
-412 71 207 c40 114 106 305 148 425 l75 217 -89 0 -90 0 0 90 0 90 320 0 320
0 0 -90 0 -90 -90 0 c-49 0 -90 -4 -90 -9 0 -14 290 -815 299 -823 5 -6 240
707 269 815 4 15 -5 17 -82 17 l-86 0 0 90 0 90 290 0 290 0 0 -90 0 -90 -89
0 -89 0 -56 -162 c-31 -90 -117 -336 -190 -548 l-134 -385 -123 -3 -124 -2
-160 444 c-88 245 -161 443 -162 442 -2 -1 -74 -200 -162 -442 l-159 -439
-123 -3 -124 -2 -200 550 -200 550 -87 0 -88 0 0 90 0 90 295 0 295 0 0 -90z
m-7938 19 c118 -25 226 -108 273 -212 39 -84 45 -160 45 -549 l0 -368 115 0
115 0 0 -85 0 -85 -340 0 -340 0 0 85 0 85 105 0 105 0 0 359 c0 331 -2 364
-20 424 -58 187 -247 218 -517 87 l-103 -50 0 -410 0 -410 115 0 115 0 0 -85
0 -85 -360 0 -360 0 0 85 0 85 125 0 125 0 0 465 0 465 -125 0 -125 0 0 90 0
90 245 0 245 0 0 -61 c0 -33 3 -59 8 -57 4 2 48 24 97 49 176 90 317 117 457
88z m1568 -4 c137 -29 273 -105 355 -198 59 -67 120 -187 141 -273 22 -92 22
-277 0 -364 -90 -359 -426 -555 -832 -485 -198 35 -364 153 -451 320 -62 121
-77 186 -77 345 0 158 15 225 77 344 78 151 241 273 417 310 89 19 282 20 370
1z m2357 0 c45 -9 109 -30 153 -52 41 -21 78 -39 83 -41 4 -2 7 15 7 37 l0 41
95 0 95 0 0 -220 0 -220 -84 0 c-95 0 -87 -9 -102 105 -10 78 -65 125 -204
170 -64 22 -194 25 -256 7 -93 -27 -149 -88 -149 -162 0 -94 67 -141 263 -185
309 -71 417 -111 488 -184 72 -71 88 -118 89 -246 0 -100 -3 -115 -27 -161
-33 -62 -89 -114 -168 -154 -192 -97 -494 -76 -657 46 -17 13 -34 24 -37 24
-3 0 -6 -22 -6 -50 l0 -50 -90 0 -90 0 0 220 0 220 84 0 83 0 5 -71 c5 -65 8
-73 44 -110 75 -77 211 -124 354 -122 184 2 295 90 275 219 -14 93 -74 129
-299 180 -212 48 -290 71 -362 106 -88 43 -128 80 -161 146 -25 51 -28 68 -28
157 0 89 3 106 27 150 87 168 320 248 575 200z m-8117 -570 l0 -555 115 0 115
0 0 -85 0 -85 -360 0 -360 0 0 85 0 85 125 0 125 0 0 465 0 465 -125 0 -125 0
0 90 0 90 245 0 245 0 0 -555z m2710 0 l0 -555 115 0 115 0 0 -85 0 -85 -360
0 -360 0 0 85 0 85 125 0 125 0 0 465 0 465 -125 0 -125 0 0 90 0 90 245 0
245 0 0 -555z m4250 0 l0 -555 115 0 115 0 0 -85 0 -85 -360 0 -360 0 0 85 0
85 125 0 125 0 0 465 0 465 -125 0 -125 0 0 90 0 90 245 0 245 0 0 -555z
m-9337 342 c45 -19 128 -56 185 -82 175 -80 277 -74 322 20 11 23 20 47 20 53
0 8 30 12 101 12 l101 0 -7 -42 c-17 -109 -96 -219 -181 -254 -123 -52 -231
-39 -418 47 -152 71 -193 87 -260 100 -90 17 -168 -25 -182 -97 l-6 -34 -100
0 -101 0 6 43 c32 232 268 338 520 234z"/>
<path d="M9275 11656 c-134 -44 -230 -139 -277 -273 -20 -58 -23 -86 -22 -198
1 -147 17 -208 79 -302 115 -173 363 -233 563 -135 66 32 155 125 188 196 91
199 61 448 -70 593 -33 36 -71 64 -124 90 -72 36 -81 38 -186 40 -71 2 -125
-2 -151 -11z"/>
</g>
</svg>
