<?xml version="1.0" encoding="utf-8"?>
<!-- Generator: Adobe Illustrator 21.1.0, SVG Export Plug-In . SVG Version: 6.00 Build 0)  -->
<svg version="1.1" id="Layer_1" xmlns="http://www.w3.org/2000/svg" xmlns:xlink="http://www.w3.org/1999/xlink" x="0px" y="0px"
	 viewBox="0 0 396 288" style="enable-background:new 0 0 396 288;" xml:space="preserve">
<style type="text/css">
	.st0{fill:#C2C0BF;}
	.st1{fill:#66C7CB;}
	.st2{fill:#E36166;}
	.st3{fill:#FFFFFF;}
</style>
<path class="st0" d="M195.5,11.6c58.8-0.1,117.6-0.2,176.3-0.3c5.1,8.5,10.3,17,15.4,25.5c-5.1,8.3-10.3,16.6-15.4,25
	c-58.8,0.1-117.6,0.2-176.3,0.3V11.6z"/>
<path class="st1" d="M77,11.4h131.7c6.6,8.4,13.2,16.8,19.7,25.2c-6.4,8.4-12.9,16.9-19.3,25.3H77V11.4z"/>
<path class="st2" d="M9.7,11.4h121.1c6.1,8.4,12.1,16.8,18.2,25.2c-5.9,8.4-11.9,16.9-17.8,25.3H9.7V11.4z"/>
<g>
	<path class="st3" d="M162.2,44.3l-3.9-10.6h-1.6V32h5.5v1.6h-1.7l2.9,8.3l2.9-8.3h-1.7V32h6v1.6h-1.8l3,8.3l2.7-8.3h-1.7V32h5.5
		v1.6h-1.7L173,44.3h-2.2l-3.1-8.7l-3.1,8.7H162.2z"/>
	<path class="st3" d="M183.7,34.8c-0.8,0.8-1.3,1.9-1.3,3.2c0,1.4,0.4,2.6,1.2,3.4c0.8,0.9,1.9,1.3,3.2,1.3c1,0,1.8-0.2,2.5-0.6
		c0.7-0.4,1.3-0.9,2-1.7l1,1.4c-0.6,0.8-1.4,1.5-2.4,1.9c-1,0.5-2.1,0.7-3.3,0.7c-1.3,0-2.4-0.3-3.4-0.8s-1.8-1.3-2.4-2.3
		c-0.6-1-0.9-2.1-0.9-3.3s0.3-2.3,0.8-3.3s1.3-1.7,2.3-2.3c1-0.5,2.1-0.8,3.3-0.8c0.9,0,1.7,0.2,2.4,0.5c0.7,0.3,1.2,0.8,1.6,1.3V32
		h1.9v4.4h-1.7c-0.2-0.9-0.6-1.6-1.3-2.1c-0.7-0.5-1.5-0.8-2.4-0.8C185.6,33.5,184.5,33.9,183.7,34.8z"/>
	<path class="st3" d="M204.6,37.9c0.6,0.3,1,0.6,1.4,1.1c0.4,0.5,0.5,1.2,0.5,2c0,1.2-0.5,2-1.4,2.6s-2,0.9-3.3,0.9
		c-0.8,0-1.5-0.1-2.2-0.4c-0.7-0.2-1.3-0.6-1.7-1v1.1h-1.8V40h1.6l0.1,1.3c0.4,0.5,0.9,0.9,1.5,1.2c0.7,0.3,1.4,0.4,2.1,0.4
		c0.8,0,1.5-0.2,2-0.5c0.5-0.3,0.8-0.8,0.8-1.3c0-0.6-0.2-1.1-0.6-1.3c-0.4-0.3-1.1-0.5-2.2-0.7l-1.7-0.4c-1.3-0.3-2.2-0.7-2.8-1.2
		c-0.6-0.5-0.9-1.3-0.9-2.4c0-1.1,0.4-1.9,1.3-2.5c0.8-0.6,1.9-0.9,3.2-0.9c0.6,0,1.3,0.1,2,0.3c0.7,0.2,1.2,0.5,1.6,0.9V32h1.8v4.2
		h-1.6l-0.2-1.5c-0.3-0.4-0.8-0.7-1.4-0.9c-0.6-0.2-1.2-0.4-1.8-0.4c-0.7,0-1.3,0.1-1.8,0.4c-0.5,0.3-0.7,0.7-0.7,1.3
		c0,0.5,0.2,0.8,0.5,1.1c0.4,0.2,1,0.5,1.8,0.7l1.6,0.3C203.3,37.4,204.1,37.6,204.6,37.9z M197.5,40.6
		C197.5,40.6,197.5,40.7,197.5,40.6L197.5,40.6z"/>
</g>
<g>
	<g>
		<path class="st3" d="M41.6,45.1v-1.6H44v-8.9h-2.3v-1.6h4.6v10.6h2.2v1.6H41.6z M43.6,29.8c-0.3-0.3-0.5-0.7-0.5-1.1
			c0-0.5,0.2-0.8,0.5-1.1c0.3-0.3,0.7-0.5,1.2-0.5c0.5,0,0.9,0.2,1.2,0.5s0.5,0.7,0.5,1.1c0,0.5-0.2,0.8-0.5,1.1s-0.7,0.5-1.2,0.5
			C44.3,30.2,44,30.1,43.6,29.8z"/>
		<path class="st3" d="M50.6,45.1v-1.6h2.3V28.9h-2.2v-1.6h4.5v16.2h2v1.6H50.6z"/>
		<path class="st3" d="M59.2,45.1v-1.6h2.3V28.9h-2.2v-1.6h4.5v16.2h2v1.6H59.2z"/>
		<path class="st3" d="M67.6,45.1v-1.6h2.4v-8.9h-2.3v-1.6h4.6v10.6h2.2v1.6H67.6z M69.6,29.8c-0.3-0.3-0.5-0.7-0.5-1.1
			c0-0.5,0.2-0.8,0.5-1.1c0.3-0.3,0.7-0.5,1.2-0.5c0.5,0,0.9,0.2,1.2,0.5s0.5,0.7,0.5,1.1c0,0.5-0.2,0.8-0.5,1.1s-0.7,0.5-1.2,0.5
			C70.3,30.2,69.9,30.1,69.6,29.8z"/>
		<path class="st3" d="M91.7,43.5v1.6h-6.6v-1.6h2v-6.4c0-0.8-0.2-1.5-0.6-2c-0.4-0.5-1-0.7-1.7-0.7c-0.6,0-1.2,0.1-1.8,0.3
			c-0.6,0.2-1.3,0.5-2,1v7.8h2.2v1.6h-6.8v-1.6h2.4v-8.9h-2.4v-1.6H81v1.2c1.6-1,3.1-1.5,4.4-1.5c1.2,0,2.1,0.4,2.9,1.1
			s1.1,1.7,1.1,3v6.8H91.7z"/>
		<path class="st3" d="M96.2,44.7c-1-0.5-1.8-1.3-2.3-2.3c-0.5-1-0.8-2.1-0.8-3.4c0-1.3,0.3-2.4,0.8-3.4c0.5-1,1.3-1.7,2.3-2.3
			c1-0.5,2.1-0.8,3.4-0.8c1.3,0,2.5,0.3,3.5,0.8s1.8,1.3,2.3,2.3c0.6,1,0.8,2.1,0.8,3.4c0,1.3-0.3,2.4-0.8,3.4
			c-0.6,1-1.3,1.8-2.3,2.3s-2.2,0.8-3.5,0.8C98.3,45.5,97.2,45.2,96.2,44.7z M102.7,42.4c0.8-0.9,1.2-2,1.2-3.4
			c0-1.4-0.4-2.5-1.2-3.3c-0.8-0.8-1.8-1.3-3.1-1.3s-2.3,0.4-3.1,1.3c-0.8,0.9-1.1,2-1.1,3.4c0,1.4,0.4,2.5,1.2,3.4
			c0.8,0.9,1.8,1.3,3.1,1.3C100.9,43.7,101.9,43.3,102.7,42.4z"/>
		<path class="st3" d="M108.2,45.1v-1.6h2.4v-8.9h-2.3v-1.6h4.6v10.6h2.2v1.6H108.2z M110.2,29.8c-0.3-0.3-0.5-0.7-0.5-1.1
			c0-0.5,0.2-0.8,0.5-1.1c0.3-0.3,0.7-0.5,1.2-0.5c0.5,0,0.9,0.2,1.2,0.5s0.5,0.7,0.5,1.1c0,0.5-0.2,0.8-0.5,1.1s-0.7,0.5-1.2,0.5
			C110.9,30.2,110.6,30.1,110.2,29.8z"/>
		<path class="st3" d="M126.7,38.8c0.6,0.3,1,0.6,1.4,1.1c0.4,0.5,0.5,1.2,0.5,2c0,1.2-0.5,2-1.4,2.6c-0.9,0.6-2,0.9-3.3,0.9
			c-0.8,0-1.5-0.1-2.2-0.4c-0.7-0.2-1.3-0.6-1.7-1v1.1h-1.8v-4.2h1.6l0.1,1.3c0.4,0.5,0.9,0.9,1.5,1.2c0.7,0.3,1.4,0.4,2.1,0.4
			c0.8,0,1.5-0.2,2-0.5c0.5-0.3,0.8-0.8,0.8-1.3c0-0.6-0.2-1.1-0.6-1.3c-0.4-0.3-1.1-0.5-2.2-0.7l-1.7-0.4c-1.3-0.3-2.2-0.7-2.8-1.2
			c-0.6-0.5-0.9-1.3-0.9-2.4c0-1.1,0.4-1.9,1.3-2.5c0.8-0.6,1.9-0.9,3.2-0.9c0.6,0,1.3,0.1,2,0.3c0.7,0.2,1.2,0.5,1.6,0.9v-0.9h1.8
			V37h-1.6l-0.2-1.5c-0.3-0.4-0.8-0.7-1.4-0.9c-0.6-0.2-1.2-0.4-1.8-0.4c-0.7,0-1.3,0.1-1.8,0.4c-0.5,0.3-0.7,0.7-0.7,1.3
			c0,0.5,0.2,0.8,0.5,1.1c0.4,0.2,1,0.5,1.8,0.7l1.6,0.3C125.3,38.3,126.1,38.5,126.7,38.8z M119.6,41.5
			C119.6,41.5,119.6,41.5,119.6,41.5L119.6,41.5z"/>
	</g>
	<g>
		<g>
			<path class="st3" d="M25.9,37.8c-0.4-0.2-1-0.4-1.6-0.7c-0.6-0.3-1-0.5-1.4-0.6c-0.4-0.1-0.7-0.2-1.1-0.2c-0.8,0-1.3,0.4-1.4,1.3
				h-1.9c0.1-1,0.4-1.8,1-2.3s1.3-0.8,2.2-0.8c0.5,0,1,0.1,1.5,0.2c0.5,0.2,1,0.4,1.6,0.7c0.6,0.3,1,0.5,1.4,0.6
				c0.3,0.1,0.7,0.2,1,0.2c0.8,0,1.3-0.4,1.4-1.3h1.9c-0.1,1-0.4,1.7-1,2.3c-0.6,0.5-1.3,0.8-2.2,0.8C26.8,38,26.3,37.9,25.9,37.8z"
				/>
		</g>
		<g>
			<path class="st3" d="M30,47.7L38.7,25h2l-8.7,22.8H30z"/>
		</g>
	</g>
</g>
</svg>
