<?xml version="1.0" encoding="utf-8"?>
<!-- Generator: Adobe Illustrator 16.0.4, SVG Export Plug-In . SVG Version: 6.00 Build 0)  -->
<!DOCTYPE svg PUBLIC "-//W3C//DTD SVG 1.1//EN" "http://www.w3.org/Graphics/SVG/1.1/DTD/svg11.dtd">
<svg version="1.1" id="Layer_1" xmlns="http://www.w3.org/2000/svg" xmlns:xlink="http://www.w3.org/1999/xlink" x="0px" y="0px"
	 width="56.693px" height="56.693px" viewBox="0 0 56.693 56.693" enable-background="new 0 0 56.693 56.693" xml:space="preserve">
<g>
	<path class="icon-social" d="M28.347,5.155c-13.6,0-24.625,11.025-24.625,24.625c0,13.602,11.025,24.625,24.625,24.625
		c13.598,0,24.623-11.023,24.623-24.625C52.97,16.181,41.944,5.155,28.347,5.155z M42.062,41.741c0,1.096-0.91,1.982-2.031,1.982
		H16.613c-1.123,0-2.031-0.887-2.031-1.982V18.052c0-1.094,0.908-1.982,2.031-1.982H40.03c1.121,0,2.031,0.889,2.031,1.982V41.741z"
		/>
	<path class="icon-social" d="M33.099,26.441c-2.201,0-3.188,1.209-3.74,2.061v0.041h-0.027c0.01-0.012,0.02-0.027,0.027-0.041v-1.768h-4.15
		c0.055,1.17,0,12.484,0,12.484h4.15v-6.973c0-0.375,0.027-0.744,0.137-1.012c0.301-0.744,0.984-1.52,2.129-1.52
		c1.504,0,2.104,1.146,2.104,2.824v6.68h4.15V32.06C37.878,28.224,35.829,26.441,33.099,26.441z"/>
	<path class="icon-social" d="M20.864,20.712c-1.419,0-2.349,0.934-2.349,2.159c0,1.197,0.9,2.158,2.294,2.158h0.027c1.447,0,2.348-0.961,2.348-2.158
		C23.157,21.646,22.284,20.712,20.864,20.712z"/>
	<rect x="18.762" y="26.734" width="4.151" height="12.484"/>
</g>
</svg>
