<svg width="1212" height="778" viewBox="0 0 1212 778" fill="none" xmlns="http://www.w3.org/2000/svg">
<path fill-rule="evenodd" clip-rule="evenodd" d="M51.8286 716.56V651.745H0V650.745H51.8286V586.678H0V585.678H51.8286V520.864H0V519.864H51.8286V455.797H0V454.797H51.8286V389.982H0V388.982H51.8286V324.915H0V323.915H51.8286V259.1H0V258.1H51.8286V194.034H0V193.034H51.8286V128.219H0V127.219H51.8286V63.1519H0V62.1519H51.8286V0.576569H52.8286V62.1519H125.258V0.576577H126.258V62.1519H199.531V0.576577H200.531V62.1519H272.96V0.576577H273.96V62.1519H347.233V0.576577H348.233V62.1519H420.662V0.576577H421.662V62.1519H494.934V0.576577H495.934V62.1519H568.364V0.576577H569.364V62.1519H642.636V0.576577H643.636V62.1519H716.066V0.576577H717.066V62.1519H790.338V0.576577H791.338V62.1519H863.767V0.576577H864.767V62.1519H938.041V0.576577H939.041V62.1519H1011.47V0.576577H1012.47V62.1519H1085.74V0.576577H1086.74V62.1519H1159.17V0.576577H1160.17V62.1519H1212V63.1519H1160.17V127.219H1212V128.219H1160.17V193.034H1212V194.034H1160.17V258.1H1212V259.1H1160.17V323.915H1212V324.915H1160.17V388.982H1212V389.982H1160.17V454.797H1212V455.797H1160.17V519.864H1212V520.864H1160.17V585.679H1212V586.679H1160.17V650.745H1212V651.745H1160.17V716.56H1212V717.56H1160.17V777.64H1159.17V717.56H1086.74V777.64H1085.74V717.56H1012.47V777.64H1011.47V717.56H939.041V777.64H938.041V717.56H864.767V777.64H863.767V717.56H791.338V777.64H790.338V717.56H717.066V777.64H716.066V717.56H643.636V777.64H642.636V717.56H569.364V777.64H568.364V717.56H495.934V777.64H494.934V717.56H421.662V777.64H420.662V717.56H348.233V777.64H347.233V717.56H273.96V777.64H272.96V717.56H200.531V777.64H199.531V717.56H126.258V777.64H125.258V717.56H52.8286V777.64H51.8286V717.56H0V716.56H51.8286ZM1159.17 63.1519H1086.74V127.219H1159.17V63.1519ZM1085.74 63.1519H1012.47V127.219H1085.74V63.1519ZM1011.47 63.1519H939.041V127.219H1011.47V63.1519ZM938.041 63.1519H864.767V127.219H938.041V63.1519ZM863.767 63.1519H791.338V127.219H863.767V63.1519ZM790.338 63.1519H717.066V127.219H790.338V63.1519ZM716.066 63.1519H643.636V127.219H716.066V63.1519ZM642.636 63.1519H569.364V127.219H642.636V63.1519ZM568.364 63.1519H495.934V127.219H568.364V63.1519ZM494.934 63.1519H421.662V127.219H494.934V63.1519ZM420.662 63.1519H348.233V127.219H420.662V63.1519ZM347.233 63.1519H273.96V127.219H347.233V63.1519ZM272.96 63.1519H200.531V127.219H272.96V63.1519ZM199.531 63.1519H126.258V127.219H199.531V63.1519ZM125.258 63.1519H52.8286V127.219H125.258V63.1519ZM52.8286 193.034V128.219H125.258V193.034H52.8286ZM126.258 193.034V128.219H199.531V193.034H126.258ZM200.531 193.034V128.219H272.96V193.034H200.531ZM273.96 193.034V128.219H347.233V193.034H273.96ZM348.233 193.034V128.219H420.662V193.034H348.233ZM421.662 193.034V128.219H494.934V193.034H421.662ZM495.934 193.034V128.219H568.364V193.034H495.934ZM569.364 193.034V128.219H642.636V193.034H569.364ZM643.636 193.034V128.219H716.066V193.034H643.636ZM717.066 193.034V128.219H790.338V193.034H717.066ZM791.338 193.034V128.219H863.767V193.034H791.338ZM864.767 193.034V128.219H938.041V193.034H864.767ZM939.041 193.034V128.219H1011.47V193.034H939.041ZM1012.47 193.034V128.219H1085.74V193.034H1012.47ZM1086.74 193.034V128.219H1159.17V193.034H1086.74ZM1159.17 194.034H1086.74V258.1H1159.17V194.034ZM1085.74 194.034H1012.47V258.1H1085.74V194.034ZM1011.47 194.034H939.041V258.1H1011.47V194.034ZM938.041 194.034H864.767V258.1H938.041V194.034ZM863.767 194.034H791.338V258.1H863.767V194.034ZM790.338 194.034H717.066V258.1H790.338V194.034ZM716.066 194.034H643.636V258.1H716.066V194.034ZM642.636 194.034H569.364V258.1H642.636V194.034ZM568.364 194.034H495.934V258.1H568.364V194.034ZM494.934 194.034H421.662V258.1H494.934V194.034ZM420.662 194.034H348.233V258.1H420.662V194.034ZM347.233 194.034H273.96V258.1H347.233V194.034ZM272.96 194.034H200.531V258.1H272.96V194.034ZM199.531 194.034H126.258V258.1H199.531V194.034ZM125.258 194.034H52.8286V258.1H125.258V194.034ZM52.8286 323.915V259.1H125.258V323.915H52.8286ZM126.258 323.915V259.1H199.531V323.915H126.258ZM200.531 323.915V259.1H272.96V323.915H200.531ZM273.96 323.915V259.1H347.233V323.915H273.96ZM348.233 323.915V259.1H420.662V323.915H348.233ZM421.662 323.915V259.1H494.934V323.915H421.662ZM495.934 323.915V259.1H568.364V323.915H495.934ZM569.364 323.915V259.1H642.636V323.915H569.364ZM643.636 323.915V259.1H716.066V323.915H643.636ZM717.066 323.915V259.1H790.338V323.915H717.066ZM791.338 323.915V259.1H863.767V323.915H791.338ZM864.767 323.915V259.1H938.041V323.915H864.767ZM939.041 323.915V259.1H1011.47V323.915H939.041ZM1012.47 323.915V259.1H1085.74V323.915H1012.47ZM1086.74 323.915V259.1H1159.17V323.915H1086.74ZM1159.17 324.915H1086.74V388.982H1159.17V324.915ZM1085.74 324.915H1012.47V388.982H1085.74V324.915ZM1011.47 324.915H939.041V388.982H1011.47V324.915ZM938.041 324.915H864.767V388.982H938.041V324.915ZM863.767 324.915H791.338V388.982H863.767V324.915ZM790.338 324.915H717.066V388.982H790.338V324.915ZM716.066 324.915H643.636V388.982H716.066V324.915ZM642.636 324.915H569.364V388.982H642.636V324.915ZM568.364 324.915H495.934V388.982H568.364V324.915ZM494.934 324.915H421.662V388.982H494.934V324.915ZM420.662 324.915H348.233V388.982H420.662V324.915ZM347.233 324.915H273.96V388.982H347.233V324.915ZM272.96 324.915H200.531V388.982H272.96V324.915ZM199.531 324.915H126.258V388.982H199.531V324.915ZM125.258 324.915H52.8286V388.982H125.258V324.915ZM52.8286 454.797V389.982H125.258V454.797H52.8286ZM126.258 454.797V389.982H199.531V454.797H126.258ZM200.531 454.797V389.982H272.96V454.797H200.531ZM273.96 454.797V389.982H347.233V454.797H273.96ZM348.233 454.797V389.982H420.662V454.797H348.233ZM421.662 454.797V389.982H494.934V454.797H421.662ZM495.934 454.797V389.982H568.364V454.797H495.934ZM569.364 454.797V389.982H642.636V454.797H569.364ZM643.636 454.797V389.982H716.066V454.797H643.636ZM717.066 454.797V389.982H790.338V454.797H717.066ZM791.338 454.797V389.982H863.767V454.797H791.338ZM864.767 454.797V389.982H938.041V454.797H864.767ZM939.041 454.797V389.982H1011.47V454.797H939.041ZM1012.47 454.797V389.982H1085.74V454.797H1012.47ZM1086.74 454.797V389.982H1159.17V454.797H1086.74ZM1159.17 455.797H1086.74V519.864H1159.17V455.797ZM1085.74 455.797H1012.47V519.864H1085.74V455.797ZM1011.47 455.797H939.041V519.864H1011.47V455.797ZM938.041 455.797H864.767V519.864H938.041V455.797ZM863.767 455.797H791.338V519.864H863.767V455.797ZM790.338 455.797H717.066V519.864H790.338V455.797ZM716.066 455.797H643.636V519.864H716.066V455.797ZM642.636 455.797H569.364V519.864H642.636V455.797ZM568.364 455.797H495.934V519.864H568.364V455.797ZM494.934 455.797H421.662V519.864H494.934V455.797ZM420.662 455.797H348.233V519.864H420.662V455.797ZM347.233 455.797H273.96V519.864H347.233V455.797ZM272.96 455.797H200.531V519.864H272.96V455.797ZM199.531 455.797H126.258V519.864H199.531V455.797ZM125.258 455.797H52.8286V519.864H125.258V455.797ZM52.8286 585.678V520.864H125.258V585.678H52.8286ZM126.258 585.678V520.864H199.531V585.678H126.258ZM200.531 585.678V520.864H272.96V585.678H200.531ZM273.96 585.678V520.864H347.233V585.678H273.96ZM348.233 585.678V520.864H420.662V585.678H348.233ZM421.662 585.678V520.864H494.934V585.678H421.662ZM495.934 585.678V520.864H568.364V585.678H495.934ZM569.364 585.678V520.864H642.636V585.679L569.364 585.678ZM643.636 585.679V520.864H716.066V585.679H643.636ZM717.066 585.679V520.864H790.338V585.679H717.066ZM791.338 585.679V520.864H863.767V585.679H791.338ZM864.767 585.679V520.864H938.041V585.679H864.767ZM939.041 585.679V520.864H1011.47V585.679H939.041ZM1012.47 585.679V520.864H1085.74V585.679H1012.47ZM1086.74 585.679V520.864H1159.17V585.679H1086.74ZM1159.17 586.679H1086.74V650.745H1159.17V586.679ZM1085.74 586.679H1012.47V650.745H1085.74V586.679ZM1011.47 586.679H939.041V650.745H1011.47V586.679ZM938.041 586.679H864.767V650.745H938.041V586.679ZM863.767 586.679H791.338V650.745H863.767V586.679ZM790.338 586.679H717.066V650.745H790.338V586.679ZM716.066 586.679H643.636V650.745H716.066V586.679ZM642.636 586.679L569.364 586.678V650.745H642.636V586.679ZM568.364 586.678H495.934V650.745H568.364V586.678ZM494.934 586.678H421.662V650.745H494.934V586.678ZM420.662 586.678H348.233V650.745H420.662V586.678ZM347.233 586.678H273.96V650.745H347.233V586.678ZM272.96 586.678H200.531V650.745H272.96V586.678ZM199.531 586.678H126.258V650.745H199.531V586.678ZM125.258 586.678H52.8286V650.745H125.258V586.678ZM52.8286 716.56V651.745H125.258V716.56H52.8286ZM126.258 716.56V651.745H199.531V716.56H126.258ZM200.531 716.56V651.745H272.96V716.56H200.531ZM273.96 716.56V651.745H347.233V716.56H273.96ZM348.233 716.56V651.745H420.662V716.56H348.233ZM421.662 716.56V651.745H494.934V716.56H421.662ZM495.934 716.56V651.745H568.364V716.56H495.934ZM569.364 716.56V651.745H642.636V716.56H569.364ZM643.636 716.56V651.745H716.066V716.56H643.636ZM717.066 716.56V651.745H790.338V716.56H717.066ZM791.338 716.56V651.745H863.767V716.56H791.338ZM864.767 716.56V651.745H938.041V716.56H864.767ZM939.041 716.56V651.745H1011.47V716.56H939.041ZM1012.47 716.56V651.745H1085.74V716.56H1012.47ZM1086.74 716.56V651.745H1159.17V716.56H1086.74Z" fill="black"/>
</svg>
