<svg width="602" height="293" viewBox="0 0 602 293" fill="none" xmlns="http://www.w3.org/2000/svg">
<path fill-rule="evenodd" clip-rule="evenodd" d="M92.0007 79.9231C63.8619 95.1531 50.1269 113.637 44.5213 130.966C47.1511 153.833 64.5734 197.934 113.224 191.4C145.059 173.705 214.199 152.036 236.075 206.917C244.102 224.067 274.523 254.856 331.989 240.809C389.456 226.762 439.195 234.956 456.881 240.809C467.279 245.845 495.689 251.753 526.149 235.093C666.646 156.612 556.031 50.8847 464.636 95.8484C470.894 69.0341 458.351 14.1803 358.11 9.28026C257.87 4.38017 227.641 64.9507 225.056 95.8484C205.601 77.0648 151.753 47.5826 92.0007 79.9231Z" fill="#CBEDFF"/>
<path d="M17.3104 235.093C108.054 267.488 329.051 316.516 487.084 253.468C501.836 247.583 514.81 241.426 526.149 235.093C495.689 251.753 467.279 245.845 456.881 240.809C439.195 234.956 389.456 226.762 331.989 240.809C274.523 254.856 244.102 224.067 236.075 206.917C214.199 152.036 145.059 173.705 113.224 191.4C64.5734 197.934 47.1511 153.833 44.5213 130.966C38.2235 150.434 42.1866 168.443 47.5131 178.742C27.378 176.7 -6.85169 185.112 17.3104 235.093Z" fill="#91C8E4"/>
<path d="M44.5213 130.966C50.1269 113.637 63.8619 95.1531 92.0007 79.9231C151.753 47.5826 205.601 77.0648 225.056 95.8484C227.641 64.9507 257.87 4.38017 358.11 9.28026C458.351 14.1803 470.894 69.0341 464.636 95.8484C556.031 50.8847 666.646 156.612 526.149 235.093M44.5213 130.966C38.2235 150.434 42.1866 168.444 47.5131 178.742C27.378 176.7 -6.85169 185.112 17.3104 235.093C108.054 267.488 329.051 316.516 487.084 253.468C501.836 247.583 514.81 241.426 526.149 235.093M44.5213 130.966C47.1511 153.833 64.5734 197.934 113.224 191.4C145.059 173.705 214.199 152.036 236.075 206.917C244.102 224.067 274.523 254.856 331.989 240.809C389.456 226.762 439.195 234.956 456.881 240.809C467.279 245.845 495.689 251.753 526.149 235.093" stroke="white" stroke-width="17"/>
</svg>
