<svg width="288" height="141" viewBox="0 0 288 141" fill="none" xmlns="http://www.w3.org/2000/svg">
<path fill-rule="evenodd" clip-rule="evenodd" d="M44.5106 38.7852C31.1158 46.0402 24.5775 54.8454 21.9091 63.1C23.161 73.9931 31.4545 95.0011 54.6135 91.8888C69.768 83.4596 102.68 73.1372 113.094 99.2805C116.915 107.45 131.396 122.117 158.752 115.426C186.107 108.734 209.785 112.637 218.204 115.426C223.153 117.825 236.677 120.639 251.177 112.702C318.058 75.3167 265.402 24.9523 221.895 46.3714C224.874 33.5981 218.903 7.46773 171.186 5.1335C123.469 2.79928 109.079 31.6529 107.848 46.3714C98.5873 37.4236 72.9543 23.3793 44.5106 38.7852Z" fill="#B1F0F2"/>
<path d="M8.95599 112.702C52.1526 128.134 157.353 151.489 232.581 121.456C239.603 118.652 245.779 115.719 251.177 112.702C236.677 120.639 223.153 117.825 218.204 115.426C209.785 112.637 186.107 108.734 158.752 115.426C131.396 122.117 116.915 107.45 113.094 99.2805C102.68 73.1372 69.768 83.4596 54.6135 91.8888C31.4545 95.0011 23.161 73.9931 21.9091 63.1C18.9112 72.3739 20.7977 80.9531 23.3333 85.8587C13.7484 84.8861 -2.54584 88.8932 8.95599 112.702Z" fill="#31CACE"/>
<path d="M21.9091 63.1C24.5775 54.8454 31.1158 46.0402 44.5106 38.7852C72.9543 23.3793 98.5873 37.4236 107.848 46.3714C109.079 31.6529 123.469 2.79928 171.186 5.1335C218.903 7.46773 224.874 33.5981 221.895 46.3714C265.402 24.9523 318.058 75.3168 251.177 112.702M21.9091 63.1C18.9112 72.3739 20.7977 80.9531 23.3333 85.8587C13.7484 84.8861 -2.54584 88.8932 8.95599 112.702C52.1526 128.134 157.353 151.489 232.581 121.456C239.603 118.652 245.779 115.719 251.177 112.702M21.9091 63.1C23.161 73.9931 31.4545 95.0011 54.6135 91.8888C69.768 83.4596 102.68 73.1372 113.094 99.2805C116.915 107.45 131.396 122.117 158.752 115.426C186.107 108.734 209.785 112.637 218.204 115.426C223.153 117.825 236.677 120.639 251.177 112.702" stroke="white" stroke-width="9"/>
</svg>
