<svg width="19" height="18" viewBox="0 0 19 18" fill="none" xmlns="http://www.w3.org/2000/svg">
<path d="M16.75 3.84V2.63289L15.8965 3.48645L8.07362 11.3093C7.95582 11.4164 7.80147 11.4747 7.64206 11.4718C7.48015 11.469 7.32566 11.4034 7.21115 11.2889C7.09664 11.1744 7.03104 11.0199 7.02819 10.858C7.02537 10.6986 7.08358 10.5442 7.19073 10.4264L15.0136 2.60355L15.8671 1.75H14.66H12.125C11.9593 1.75 11.8003 1.68415 11.6831 1.56694C11.5659 1.44973 11.5 1.29076 11.5 1.125C11.5 0.95924 11.5659 0.800269 11.6831 0.683058C11.8003 0.565848 11.9593 0.5 12.125 0.5H17.375C17.5408 0.5 17.6998 0.565848 17.817 0.683058C17.9342 0.800269 18 0.959241 18 1.125V6.375C18 6.54076 17.9342 6.69973 17.817 6.81694C17.6998 6.93415 17.5408 7 17.375 7C17.2093 7 17.0503 6.93415 16.9331 6.81694C16.8159 6.69973 16.75 6.54076 16.75 6.375V3.84ZM4.625 4.74993C3.31386 4.74993 2.25 5.81378 2.25 7.12493V13.8749C2.25 15.1861 3.31386 16.2499 4.625 16.2499H11.375C12.6861 16.2499 13.75 15.1861 13.75 13.8749V10.4999C13.75 10.3342 13.8158 10.1752 13.9331 10.058C14.0503 9.94077 14.2092 9.87493 14.375 9.87493C14.5408 9.87493 14.6997 9.94077 14.8169 10.058C14.9342 10.1752 15 10.3342 15 10.4999V13.8749C15 14.8363 14.6181 15.7584 13.9383 16.4382C13.2584 17.118 12.3364 17.4999 11.375 17.4999H4.625C3.66359 17.4999 2.74156 17.118 2.06174 16.4382C1.38192 15.7584 1 14.8363 1 13.8749V7.12493C1 6.16352 1.38192 5.24148 2.06174 4.56166C2.74156 3.88184 3.66359 3.49993 4.625 3.49993H8C8.16576 3.49993 8.32473 3.56577 8.44194 3.68298C8.55915 3.80019 8.625 3.95917 8.625 4.12493C8.625 4.29069 8.55915 4.44966 8.44194 4.56687C8.32473 4.68408 8.16576 4.74993 8 4.74993H4.625Z" fill="black" stroke="black"/>
</svg>
