<svg width="34" height="34" viewBox="0 0 34 34" fill="none" xmlns="http://www.w3.org/2000/svg">
<path d="M17 0C12.3786 0 11.8027 0.0223153 9.99406 0.0988249C8.17802 0.188086 6.94962 0.469684 5.86573 0.890486C4.73133 1.31875 3.70398 1.98927 2.85529 2.85529C1.98685 3.702 1.31596 4.72992 0.890486 5.86573C0.469684 6.94962 0.188086 8.17802 0.0988249 9.99406C0.0170021 11.8037 0 12.3786 0 17C0 21.6214 0.0223153 22.1973 0.0988249 24.0059C0.188086 25.8167 0.469684 27.0504 0.890486 28.1343C1.31875 29.2687 1.98927 30.296 2.85529 31.1447C3.702 32.0131 4.72992 32.684 5.86573 33.1095C6.94962 33.525 8.18334 33.8119 9.99406 33.9012C11.8037 33.983 12.3786 34 17 34C21.6214 34 22.1973 33.9777 24.0059 33.9012C25.8167 33.8119 27.0504 33.5239 28.1343 33.1095C29.2687 32.6812 30.296 32.0107 31.1447 31.1447C32.0143 30.2989 32.6853 29.2707 33.1095 28.1343C33.525 27.0504 33.8119 25.8167 33.9012 24.0059C33.983 22.1963 34 21.6214 34 17C34 12.3786 33.9777 11.8027 33.9012 9.99406C33.8119 8.18334 33.5239 6.94324 33.1095 5.86573C32.6812 4.73133 32.0107 3.70398 31.1447 2.85529C30.2989 1.98573 29.2707 1.31467 28.1343 0.890486C27.0504 0.469684 25.8167 0.188086 24.0059 0.0988249C22.1963 0.0170021 21.6214 0 17 0ZM17 3.06038C21.5385 3.06038 22.0804 3.0827 23.8742 3.15921C25.5287 3.23678 26.4298 3.51306 27.0281 3.74684C27.7677 4.01986 28.4371 4.4544 28.9876 5.01881C29.551 5.56695 29.9839 6.23484 30.2542 6.973C30.488 7.57126 30.7643 8.47237 30.8419 10.1269C30.9184 11.9206 30.9407 12.4636 30.9407 17.0011C30.9407 21.5385 30.9184 22.0815 30.8355 23.8752C30.7462 25.5298 30.4699 26.4309 30.2372 27.0291C29.9152 27.8272 29.5561 28.385 28.9631 28.9886C28.4108 29.5495 27.7418 29.982 27.0036 30.2553C26.4128 30.4891 25.4989 30.7653 23.838 30.8429C22.0348 30.9194 21.5034 30.9417 16.9532 30.9417C12.4031 30.9417 11.8728 30.9194 10.0674 30.8365C8.41286 30.7473 7.50006 30.471 6.9018 30.2383C6.0942 29.9163 5.54057 29.5571 4.94762 28.9642C4.34936 28.3659 3.96893 27.7963 3.67565 27.0047C3.43762 26.4139 3.16558 25.5 3.07738 23.8391C3.01681 22.0571 2.98812 21.5045 2.98812 16.9756C2.98812 12.4487 3.01681 11.8951 3.07738 10.0908C3.16558 8.42987 3.43762 7.51813 3.67565 6.92518C3.96893 6.11651 4.35042 5.56395 4.94762 4.96568C5.53951 4.3738 6.0942 3.99125 6.9018 3.69159C7.50006 3.45887 8.39055 3.18259 10.0514 3.0997C11.8547 3.03488 12.386 3.0115 16.9299 3.0115L17 3.06038ZM17 8.27472C15.8538 8.2743 14.7187 8.49976 13.6597 8.9382C12.6006 9.37665 11.6384 10.0195 10.8279 10.83C10.0174 11.6405 9.37452 12.6028 8.93608 13.6618C8.49763 14.7208 8.27218 15.8559 8.2726 17.0021C8.27218 18.1483 8.49763 19.2834 8.93608 20.3425C9.37452 21.4015 10.0174 22.3638 10.8279 23.1743C11.6384 23.9848 12.6006 24.6276 13.6597 25.066C14.7187 25.5045 15.8538 25.7299 17 25.7295C18.1462 25.7299 19.2813 25.5045 20.3403 25.066C21.3994 24.6276 22.3616 23.9848 23.1721 23.1743C23.9826 22.3638 24.6255 21.4015 25.0639 20.3425C25.5024 19.2834 25.7278 18.1483 25.7274 17.0021C25.7278 15.8559 25.5024 14.7208 25.0639 13.6618C24.6255 12.6028 23.9826 11.6405 23.1721 10.83C22.3616 10.0195 21.3994 9.37665 20.3403 8.9382C19.2813 8.49976 18.1462 8.2743 17 8.27472ZM17 22.6691C13.8674 22.6691 11.333 20.1348 11.333 17.0021C11.333 13.8695 13.8674 11.3351 17 11.3351C20.1326 11.3351 22.667 13.8695 22.667 17.0021C22.667 20.1348 20.1326 22.6691 17 22.6691ZM28.1194 7.92618C28.1188 8.46776 27.9033 8.98698 27.5201 9.36974C27.137 9.7525 26.6175 9.9675 26.0759 9.9675C25.8082 9.9675 25.543 9.91475 25.2956 9.81227C25.0482 9.70979 24.8234 9.55959 24.634 9.37023C24.4447 9.18087 24.2945 8.95607 24.192 8.70867C24.0895 8.46126 24.0368 8.19609 24.0368 7.9283C24.0368 7.66051 24.0895 7.39534 24.192 7.14794C24.2945 6.90053 24.4447 6.67573 24.634 6.48638C24.8234 6.29702 25.0482 6.14681 25.2956 6.04434C25.543 5.94186 25.8082 5.88911 26.0759 5.88911C27.1992 5.88911 28.1194 6.80298 28.1194 7.92618Z" fill="black"/>
</svg>
