<svg xmlns="http://www.w3.org/2000/svg" version="1.1" viewBox="118.96 118.9 742.16 742.32">
<path d="M0 0 C3.53027098 0.00740845 7.06054252 0.01089365 10.59081912 0.01450694 C21.13982122 0.0254153 31.68879541 0.04516002 42.23777843 0.06765997 C50.99214139 0.08626955 59.74650618 0.10281036 68.50087494 0.11837581 C106.2299311 0.18564202 143.95890632 0.2725369 181.68787289 0.37880373 C185.23772582 0.38877574 188.78757883 0.39871824 192.33743191 0.40863848 C193.65864301 0.41233674 193.65864301 0.41233674 195.00654525 0.41610971 C209.43922197 0.45631364 223.87190656 0.48891058 238.30460802 0.51875548 C253.3343839 0.54998023 268.36412767 0.5885609 283.39386725 0.63404572 C291.75028918 0.65914476 300.10669191 0.68114877 308.46314144 0.69459963 C315.52481864 0.70596771 322.58644042 0.72401957 329.64807805 0.7504227 C333.22853047 0.76361127 336.80891964 0.77392501 340.38939762 0.7754693 C385.64957141 0.80188524 431.71751521 4.17021952 467.54983425 35.09125566 C468.91688503 36.26881426 468.91688503 36.26881426 470.311553 37.47016191 C472.76498969 39.63754769 475.16620833 41.84759354 477.54983425 44.09125566 C478.45088894 44.91303301 478.45088894 44.91303301 479.37014675 45.75141191 C515.52841568 79.9756339 520.98082733 129.04221182 522.29153359 175.94478518 C522.78620612 194.92257802 522.67338957 213.90977877 522.64108992 232.8923099 C522.63379529 237.63910846 522.63024996 242.38590739 522.62658298 247.13270992 C522.61403936 263.0300324 522.58760332 278.92731809 522.55776691 294.824615 C522.54969923 299.13645867 522.54206559 303.44830305 522.53446865 307.76014757 C522.46873833 344.87664276 522.37878679 381.99302943 522.26228619 419.10940027 C522.25231983 422.29174719 522.24237666 425.47409417 522.23245144 428.65644121 C522.22998593 429.4454303 522.22752042 430.2344194 522.22498021 431.04731725 C522.1845257 444.05569124 522.1520196 457.064074 522.12233444 470.07247654 C522.09110106 483.69731082 522.05254863 497.32210969 522.0070442 510.94690388 C521.9820248 518.49252894 521.95999586 526.03813314 521.94649029 533.58378839 C521.93511738 539.93486565 521.91705223 546.28588148 521.89066721 552.63691483 C521.87750896 555.85097289 521.86826297 559.06494997 521.86562061 562.27903605 C521.81549282 614.02093397 514.40204905 661.13916695 476.54983425 699.09125566 C469.16451178 706.39265402 461.24368012 712.47077904 452.54983425 718.09125566 C451.62944363 718.69711504 450.709053 719.30297441 449.76077175 719.92719316 C430.23760504 732.08105188 408.01094833 737.64022383 385.36233425 739.84125566 C384.1908987 739.95702959 383.01946316 740.07280352 381.81252956 740.19208574 C349.3343373 742.97768598 316.52931009 742.22971003 283.96998885 742.18175067 C279.09617267 742.17466192 274.22235852 742.16990658 269.3485384 742.16655207 C268.64088125 742.166062 267.93322411 742.16557193 267.20412281 742.16506701 C265.76303922 742.16407375 264.32195563 742.16308248 262.88087203 742.16209317 C246.3727855 742.15036171 229.86472217 742.12717014 213.35665219 742.1015796 C208.12076667 742.09351022 202.88488055 742.08609521 197.64899349 742.07910204 C162.47247681 742.03208203 127.29610006 741.96335228 92.11971378 741.85552073 C89.18960106 741.84657682 86.25948822 741.83767422 83.32937527 741.82880449 C82.60345036 741.82660127 81.87752546 741.82439806 81.12960283 741.82212807 C69.12044296 741.78597941 57.11128405 741.76148449 45.10208852 741.74090865 C32.44844162 741.71900651 19.79485936 741.68594932 7.14126772 741.6425541 C0.16238304 741.61889979 -6.8164394 741.5997516 -13.79536343 741.59364176 C-91.86985804 741.51775644 -91.86985804 741.51775644 -116.45016575 733.09125566 C-117.44741673 732.76882891 -117.44741673 732.76882891 -118.46481419 732.43988848 C-140.12503892 725.39531369 -157.94507923 713.6271823 -174.45016575 698.09125566 C-175.05086887 697.5434041 -175.651572 696.99555254 -176.27047825 696.43109941 C-211.51575941 663.07103097 -217.90006817 614.9896421 -219.18351269 569.09159422 C-219.51481032 554.83454287 -219.49783808 540.57919135 -219.48288059 526.31903887 C-219.48156353 524.26005538 -219.48052306 522.20107186 -219.47949945 520.14208821 C-219.47454631 510.45847104 -219.46327319 500.77486484 -219.45016575 491.09125566 C-219.44915304 490.33733693 -219.44814034 489.5834182 -219.44709694 488.80665344 C-219.38712008 444.61382634 -219.27713558 400.42108054 -219.16263866 356.22836637 C-219.15265821 352.36536145 -219.1427068 348.50235644 -219.13278294 344.63935137 C-219.13031694 343.67994209 -219.12785095 342.72053281 -219.12531023 341.73205052 C-219.08529449 326.08200333 -219.05263266 310.43194892 -219.02266593 294.78187963 C-218.99144684 278.55502043 -218.95284439 262.32819099 -218.90737569 246.10136539 C-218.87976642 236.1711928 -218.85761798 226.24104133 -218.84290324 216.31084112 C-218.83228176 209.52256262 -218.81437785 202.73432641 -218.79099871 195.94607999 C-218.77778851 192.05187207 -218.76749302 188.15772266 -218.76595211 184.26349115 C-218.73742063 130.9817293 -212.61441575 82.35884142 -173.45016575 43.09125566 C-166.06484328 35.78985731 -158.14401162 29.71173229 -149.45016575 24.09125566 C-148.52977512 23.48539629 -147.6093845 22.87953691 -146.66110325 22.25531816 C-117.30966802 3.98301623 -83.32156895 1.56648234 -49.69918919 0.53412676 C-49.01842304 0.5131149 -48.33765689 0.49210304 -47.63626146 0.47045445 C-31.75705692 -0.00865424 -15.88507326 -0.03722214 0 0 Z M-59.38766575 32.02875566 C-60.169603 32.06627947 -60.95154026 32.10380327 -61.75717258 32.14246416 C-82.44680317 33.11090039 -82.44680317 33.11090039 -102.63766575 37.34125566 C-103.38048801 37.55814043 -104.12331028 37.7750252 -104.88864231 37.99848223 C-132.94048007 46.45856028 -157.41020873 65.26670516 -171.6806345 91.01703691 C-187.29453519 120.46717824 -187.60690914 152.52593137 -188.45016575 185.09125566 C-188.46972324 185.82640398 -188.48928074 186.5615523 -188.50943089 187.31897783 C-188.86552532 200.73399432 -189.13758593 214.15020363 -189.38443089 227.56763506 C-189.45096298 231.13399028 -189.52095154 234.70026641 -189.59127903 238.26654863 C-191.16897193 319.86836849 -191.20777472 401.60822175 -189.516572 509.50623369 C-189.43102232 514.12473683 -189.35733406 518.74339234 -189.28376865 523.36209917 C-190.47851906 605.81309664 -190.47851906 605.81309664 -152.76266575 676.21625566 C-119.90919635 707.7883885 -77.72813098 709.94691672 -34.45016575 711.09125566 C-33.72446384 711.11081316 -32.99876194 711.13037066 -32.25106907 711.1505208 C-18.82897049 711.5097158 -5.40552205 711.7791828 8.01907253 712.0255208 C11.58927438 712.09198995 15.15939506 712.16198817 18.72952175 712.23236895 C100.32971784 713.80997229 182.06797857 713.84908399 289.96157742 712.15766191 C294.58969242 712.07201148 299.2179607 711.99836204 303.84628201 711.92487383 C323.21957278 711.61349598 342.57187666 711.11144861 361.92483425 710.15375566 C363.10039883 710.097334 363.10039883 710.097334 364.29971218 710.03977251 C378.65575876 709.3349898 393.27467266 708.61279605 407.11233425 704.46625566 C407.99018581 704.20755693 408.86803738 703.9488582 409.7724905 703.68232012 C438.50224114 694.81649863 462.19082758 674.31571124 476.54983425 648.09125566 C484.40047063 632.6820197 488.21622036 616.23429854 489.54983425 599.09125566 C489.6274795 598.10026873 489.70512474 597.10928179 489.78512287 596.08826494 C490.41011961 587.73697852 490.82284668 579.39905584 491.07766628 571.02875566 C491.10831594 570.04574984 491.10831594 570.04574984 491.13958478 569.0428853 C491.6745608 551.72913283 491.90679199 534.41160966 492.10452175 517.09125566 C492.11488382 516.20970057 492.12524589 515.32814547 492.13592196 514.41987658 C492.73381782 463.53026037 492.70210686 412.63866048 492.67840362 361.74626398 C492.67405726 351.32379342 492.67717209 340.90133495 492.68203175 330.47886515 C492.68663285 320.17746827 492.68718127 309.87607647 492.68459308 299.5746789 C492.68307395 293.52736551 492.68271109 287.48006016 492.68612957 281.43274736 C492.69827669 256.49393479 492.56385642 231.56520322 492.09622097 206.63031816 C492.06630231 205.00326511 492.06630231 205.00326511 492.03577924 203.3433423 C491.6104233 126.51870988 491.6104233 126.51870988 452.655303 62.78656816 C419.77799759 33.34452657 377.64027836 31.92633695 335.81933498 31.55006838 C332.67345823 31.52052568 329.52765934 31.48485005 326.38184261 31.4495635 C316.00633365 31.33386855 305.63067131 31.23986783 295.25491238 31.14984941 C289.33259973 31.09845418 283.41031332 31.04443137 277.48802757 30.99003553 C197.33431751 30.25588405 117.17865817 29.75635797 -59.38766575 32.02875566 Z " fill="#000000" transform="translate(338.4501657485962,118.90874433517456)"/>
<path d="M0 0 C2.45193369 2.1514698 4.81517925 4.35752367 7.14453125 6.640625 C8.06105469 7.52041016 8.06105469 7.52041016 8.99609375 8.41796875 C26.55581252 26.73941048 37.35983869 58.16836234 37.26478577 83.15110779 C37.2660674 84.39739561 37.2660674 84.39739561 37.26737493 85.66886097 C37.26901534 88.43868677 37.26353202 91.20845131 37.25805664 93.97827148 C37.25777443 95.96942646 37.25793316 97.96058154 37.25849915 99.95173645 C37.25878581 105.34785319 37.25291025 110.74394766 37.24592519 116.14005923 C37.23966984 121.78282988 37.23908612 127.42560105 37.23789978 133.06837463 C37.2347929 143.74960217 37.22658818 154.43081946 37.21655029 165.11204249 C37.2032781 179.54852975 37.19788405 193.98501982 37.19204807 208.42151165 C37.18264787 231.16122377 37.16272464 253.90091427 37.14453125 276.640625 C6.78453125 276.640625 -23.57546875 276.640625 -54.85546875 276.640625 C-54.89285156 264.14703125 -54.93023438 251.6534375 -54.96875 238.78125 C-54.99903014 230.86066604 -55.03005714 222.94009664 -55.06445312 215.01953125 C-55.11889468 202.45102264 -55.17030968 189.88255443 -55.2019043 177.31396484 C-55.22493088 168.15939759 -55.25838082 159.00493682 -55.30417031 149.85045409 C-55.32803976 145.00651091 -55.34680961 140.16267277 -55.35308266 135.31867218 C-55.359162 130.75171528 -55.379264 126.18502695 -55.40974426 121.61816978 C-55.41847904 119.94939481 -55.42225662 118.28058468 -55.42047691 116.6117878 C-55.40788237 99.34022398 -58.17112981 84.80092788 -70.40625 71.8984375 C-82.78630263 60.485885 -98.45789082 57.94580518 -114.68212891 58.51318359 C-127.81979457 59.28355671 -141.52133584 64.4345071 -151.12109375 73.64453125 C-163.98179747 88.44592675 -167.15001679 105.23584828 -167.17431641 124.17602539 C-167.18362655 125.84236125 -167.19379682 127.50869249 -167.20475769 129.17501831 C-167.23194939 133.67639816 -167.24717483 138.17774689 -167.26018572 142.67918706 C-167.27586386 147.39174653 -167.30263906 152.10424293 -167.32821655 156.8167572 C-167.37492164 165.73063263 -167.41170569 174.64452003 -167.44488943 183.55845493 C-167.49033342 195.61088124 -167.55117588 207.66322929 -167.61113739 219.71559048 C-167.70513507 238.69056267 -167.77862205 257.66555764 -167.85546875 276.640625 C-198.21546875 276.640625 -228.57546875 276.640625 -259.85546875 276.640625 C-259.85546875 178.300625 -259.85546875 79.960625 -259.85546875 -21.359375 C-231.47546875 -21.359375 -203.09546875 -21.359375 -173.85546875 -21.359375 C-173.52546875 -8.489375 -173.19546875 4.380625 -172.85546875 17.640625 C-166.81290671 10.9320043 -166.81290671 10.9320043 -160.79296875 4.203125 C-117.5878687 -38.00646583 -45.18832802 -37.33755147 0 0 Z " fill="#000000" transform="translate(675.85546875,437.359375)"/>
<path d="M0 0 C30.69 0 61.38 0 93 0 C93 98.34 93 196.68 93 298 C62.31 298 31.62 298 0 298 C0 199.66 0 101.32 0 0 Z " fill="#000000" transform="translate(274,416)"/>
<path d="M0 0 C11.12760769 9.42861944 18.04365419 21.44925129 20.08984375 35.84375 C21.1827439 53.2040485 16.8370032 67.07799332 5.53515625 80.30078125 C-3.8462035 90.05679595 -16.63299031 95.86009951 -30.11987305 96.13623047 C-44.00355778 96.23584217 -54.36561394 93.8994493 -65.91015625 85.84375 C-66.94076172 85.12638672 -66.94076172 85.12638672 -67.9921875 84.39453125 C-78.31667077 76.31007394 -84.85652973 63.61730698 -86.91015625 50.84375 C-88.4344939 35.50651034 -84.98561651 21.43151137 -75.75390625 8.921875 C-56.43367274 -13.78567218 -24.12626553 -17.87610546 0 0 Z " fill="#000000" transform="translate(353.91015625,277.15625)"/>
</svg>