<svg width="34" height="34" viewBox="0 0 34 34" fill="none" xmlns="http://www.w3.org/2000/svg">
<path d="M7.14425 21.4827C7.14229 22.4294 6.76571 23.3369 6.09678 24.0068C5.42785 24.6767 4.52096 25.0546 3.57425 25.058C2.62663 25.0563 1.71833 24.6791 1.04836 24.0089C0.378393 23.3387 0.00140446 22.4303 0 21.4827C0.00308803 20.5362 0.38082 19.6294 1.05061 18.9606C1.72039 18.2918 2.62774 17.9154 3.57425 17.9137H7.14425V21.4827ZM8.942 21.4827C8.94509 20.536 9.32297 19.629 9.99298 18.9602C10.663 18.2914 11.5706 17.9151 12.5173 17.9137C13.4631 17.9163 14.3694 18.2931 15.0381 18.9619C15.7069 19.6306 16.0837 20.5369 16.0863 21.4827V30.4257C16.0846 31.3723 15.7082 32.2796 15.0394 32.9494C14.3706 33.6192 13.4638 33.9969 12.5173 34C11.57 33.9978 10.662 33.6205 9.99204 32.9507C9.32205 32.2809 8.94453 31.3731 8.942 30.4257V21.4827ZM12.5173 7.14425C11.5706 7.14229 10.6631 6.76571 9.99322 6.09678C9.3233 5.42785 8.94537 4.52096 8.942 3.57425C8.94453 2.62689 9.32205 1.71907 9.99204 1.04929C10.662 0.379502 11.57 0.00224356 12.5173 0C13.4638 0.00308803 14.3706 0.38082 15.0394 1.05061C15.7082 1.72039 16.0846 2.62774 16.0863 3.57425V7.14425H12.5173ZM12.5173 8.942C13.4643 8.94425 14.3717 9.32186 15.0407 9.99205C15.7097 10.6623 16.0857 11.5704 16.0863 12.5173C16.0848 13.4634 15.7084 14.3704 15.0394 15.0394C14.3704 15.7084 13.4634 16.0848 12.5173 16.0863H3.57425C2.62774 16.0846 1.72039 15.7082 1.05061 15.0394C0.38082 14.3706 0.00308803 13.4638 0 12.5173C0.00224356 11.57 0.379502 10.662 1.04929 9.99204C1.71907 9.32205 2.62689 8.94453 3.57425 8.942H12.5173ZM26.8558 12.5173C26.8566 11.5703 27.2328 10.6622 27.902 9.99199C28.5712 9.32182 29.4787 8.94425 30.4257 8.942C31.3731 8.94453 32.2809 9.32205 32.9507 9.99204C33.6205 10.662 33.9978 11.57 34 12.5173C33.9969 13.4638 33.6192 14.3706 32.9494 15.0394C32.2796 15.7082 31.3723 16.0846 30.4257 16.0863H26.8558V12.5173ZM25.058 12.5173C25.0549 13.464 24.677 14.371 24.007 15.0398C23.337 15.7086 22.4294 16.0849 21.4827 16.0863C20.5369 16.0837 19.6306 15.7069 18.9619 15.0381C18.2931 14.3694 17.9163 13.4631 17.9137 12.5173V3.57425C17.9154 2.62774 18.2918 1.72039 18.9606 1.05061C19.6294 0.38082 20.5362 0.00308803 21.4827 0C22.4303 0.00140446 23.3387 0.378393 24.0089 1.04836C24.6791 1.71833 25.0563 2.62663 25.058 3.57425V12.5173ZM21.4827 26.8558C23.4589 26.8558 25.0527 28.4548 25.058 30.4257C25.0563 31.3734 24.6791 32.2817 24.0089 32.9516C23.3387 33.6216 22.4303 33.9986 21.4827 34C20.5362 33.9969 19.6294 33.6192 18.9606 32.9494C18.2918 32.2796 17.9154 31.3723 17.9137 30.4257V26.8558H21.4827ZM21.4827 25.058C20.536 25.0549 19.629 24.677 18.9602 24.007C18.2914 23.337 17.9151 22.4294 17.9137 21.4827C17.9152 20.5366 18.2916 19.6296 18.9606 18.9606C19.6296 18.2916 20.5366 17.9152 21.4827 17.9137H30.4257C31.3723 17.9154 32.2796 18.2918 32.9494 18.9606C33.6192 19.6294 33.9969 20.5362 34 21.4827C33.9986 22.4303 33.6216 23.3387 32.9516 24.0089C32.2817 24.6791 31.3734 25.0563 30.4257 25.058H21.4827Z" fill="black"/>
</svg>
